# Blender 4.0.2
# www.blender.org
mtllib leg_left.mtl
o LeftLeg
v -0.481995 -1.637689 0.997328
v -0.481995 -1.637689 -0.970836
v -2.450159 -1.637689 -0.970836
v -2.450159 -1.637689 0.997328
v -0.481995 2.298638 0.997328
v -0.481995 2.298638 -0.970836
v -2.450159 2.298638 -0.970836
v -2.450159 2.298638 0.997328
vn 1.0000 -0.0000 -0.0000
vn -0.0000 -0.0000 -1.0000
vn -1.0000 -0.0000 -0.0000
vn -0.0000 -0.0000 1.0000
vn -0.0000 -1.0000 -0.0000
vn -0.0000 1.0000 -0.0000
vt 0.869174 0.368993
vt 0.971497 0.152943
vt 0.971497 0.368993
vt 0.756234 0.369121
vt 0.858128 0.152657
vt 0.858128 0.369121
vt 0.643748 0.370464
vt 0.745683 0.151118
vt 0.745683 0.370464
vt 0.529650 0.370893
vt 0.633102 0.151818
vt 0.633102 0.370893
vt 0.530199 0.035270
vt 0.630475 0.138970
vt 0.530199 0.138970
vt 0.633477 0.488232
vt 0.528698 0.379234
vt 0.633477 0.379234
vt 0.869174 0.152943
vt 0.756234 0.152657
vt 0.643748 0.151118
vt 0.529650 0.151818
vt 0.630475 0.035270
vt 0.528698 0.488232
s 0
usemtl LeftLeg
f 6/1/1 5/3/1 1/2/1
f 7/4/2 6/6/2 2/5/2
f 8/7/3 7/9/3 3/8/3
f 5/10/4 8/12/4 4/11/4
f 2/13/5 1/15/5 4/14/5
f 7/16/6 8/18/6 5/17/6
f 6/1/1 1/2/1 2/19/1
f 7/4/2 2/5/2 3/20/2
f 8/7/3 3/8/3 4/21/3
f 5/10/4 4/11/4 1/22/4
f 2/13/5 4/14/5 3/23/5
f 7/16/6 5/17/6 6/24/6
